<mxfile host="app.diagrams.net" agent="Mozilla/5.0 (Windows NT 10.0; Win64; x64; rv:137.0) Gecko/20100101 Firefox/137.0" version="26.2.12">
  <diagram name="Page-1" id="oTEAUJqMq0LoYjAcoSTm">
    <mxGraphModel dx="1474" dy="799" grid="1" gridSize="10" guides="1" tooltips="1" connect="1" arrows="1" fold="1" page="1" pageScale="1" pageWidth="850" pageHeight="1100" background="none" math="0" shadow="0">
      <root>
        <mxCell id="0" />
        <mxCell id="1" parent="0" />
        <mxCell id="x1PVfPSBhp6ivKvTVOWP-2" value="marketdata_adapter" style="rounded=1;whiteSpace=wrap;html=1;fillColor=#dae8fc;strokeColor=#6c8ebf;textOpacity=40;fillOpacity=40;strokeOpacity=40;" parent="1" vertex="1">
          <mxGeometry x="40" y="367.65" width="123.52602266180142" height="67.05882352941177" as="geometry" />
        </mxCell>
        <mxCell id="x1PVfPSBhp6ivKvTVOWP-5" style="edgeStyle=orthogonalEdgeStyle;rounded=0;orthogonalLoop=1;jettySize=auto;html=1;exitX=1;exitY=0.5;exitDx=0;exitDy=0;entryX=0;entryY=0.5;entryDx=0;entryDy=0;textOpacity=40;fillOpacity=40;strokeOpacity=40;" parent="1" source="x1PVfPSBhp6ivKvTVOWP-2" target="iLl4sf8TZpeG5W6NkvIJ-1" edge="1">
          <mxGeometry relative="1" as="geometry" />
        </mxCell>
        <mxCell id="x1PVfPSBhp6ivKvTVOWP-19" value="n" style="edgeLabel;html=1;align=center;verticalAlign=middle;resizable=0;points=[];textOpacity=40;fillOpacity=40;strokeOpacity=40;" parent="x1PVfPSBhp6ivKvTVOWP-5" vertex="1" connectable="0">
          <mxGeometry x="-0.8564" relative="1" as="geometry">
            <mxPoint x="12" as="offset" />
          </mxGeometry>
        </mxCell>
        <mxCell id="x1PVfPSBhp6ivKvTVOWP-27" style="edgeStyle=orthogonalEdgeStyle;rounded=0;orthogonalLoop=1;jettySize=auto;html=1;exitX=0.5;exitY=1;exitDx=0;exitDy=0;entryX=0.5;entryY=0;entryDx=0;entryDy=0;entryPerimeter=0;textOpacity=40;fillOpacity=40;strokeOpacity=40;" parent="1" source="iLl4sf8TZpeG5W6NkvIJ-1" target="x1PVfPSBhp6ivKvTVOWP-26" edge="1">
          <mxGeometry relative="1" as="geometry" />
        </mxCell>
        <mxCell id="x1PVfPSBhp6ivKvTVOWP-1" value="Exchange" style="rounded=0;whiteSpace=wrap;html=1;fillColor=#f8cecc;strokeColor=#b85450;" parent="1" vertex="1">
          <mxGeometry x="308.5404263491454" y="170" width="123.52602266180142" height="67.05882352941177" as="geometry" />
        </mxCell>
        <mxCell id="x1PVfPSBhp6ivKvTVOWP-3" value="marketdata" style="endArrow=classic;html=1;rounded=0;entryX=0.5;entryY=0;entryDx=0;entryDy=0;exitX=0;exitY=0.5;exitDx=0;exitDy=0;edgeStyle=orthogonalEdgeStyle;textOpacity=40;fillOpacity=40;strokeOpacity=40;" parent="1" source="x1PVfPSBhp6ivKvTVOWP-1" target="x1PVfPSBhp6ivKvTVOWP-2" edge="1">
          <mxGeometry width="50" height="50" relative="1" as="geometry">
            <mxPoint x="390.8911081236797" y="757.6470588235294" as="sourcePoint" />
            <mxPoint x="442.3602842327636" y="701.7647058823529" as="targetPoint" />
          </mxGeometry>
        </mxCell>
        <mxCell id="x1PVfPSBhp6ivKvTVOWP-17" value="1" style="edgeLabel;html=1;align=center;verticalAlign=middle;resizable=0;points=[];textOpacity=40;fillOpacity=40;strokeOpacity=40;" parent="x1PVfPSBhp6ivKvTVOWP-3" vertex="1" connectable="0">
          <mxGeometry x="-0.9188" y="2" relative="1" as="geometry">
            <mxPoint as="offset" />
          </mxGeometry>
        </mxCell>
        <mxCell id="x1PVfPSBhp6ivKvTVOWP-18" value="n" style="edgeLabel;html=1;align=center;verticalAlign=middle;resizable=0;points=[];textOpacity=40;fillOpacity=40;strokeOpacity=40;" parent="x1PVfPSBhp6ivKvTVOWP-3" vertex="1" connectable="0">
          <mxGeometry x="0.8841" relative="1" as="geometry">
            <mxPoint as="offset" />
          </mxGeometry>
        </mxCell>
        <mxCell id="x1PVfPSBhp6ivKvTVOWP-4" value="strategy" style="rounded=1;whiteSpace=wrap;html=1;fillColor=#dae8fc;strokeColor=#6c8ebf;textOpacity=40;fillOpacity=40;strokeOpacity=40;" parent="1" vertex="1">
          <mxGeometry x="308.5404263491454" y="367.6476470588235" width="123.52602266180142" height="67.05882352941177" as="geometry" />
        </mxCell>
        <mxCell id="x1PVfPSBhp6ivKvTVOWP-10" style="edgeStyle=orthogonalEdgeStyle;rounded=0;orthogonalLoop=1;jettySize=auto;html=1;exitX=0.25;exitY=0;exitDx=0;exitDy=0;entryX=1;entryY=0.75;entryDx=0;entryDy=0;startArrow=none;startFill=0;" parent="1" source="x1PVfPSBhp6ivKvTVOWP-9" target="x1PVfPSBhp6ivKvTVOWP-1" edge="1">
          <mxGeometry relative="1" as="geometry" />
        </mxCell>
        <mxCell id="x1PVfPSBhp6ivKvTVOWP-11" value="actions" style="edgeLabel;html=1;align=center;verticalAlign=middle;resizable=0;points=[];" parent="x1PVfPSBhp6ivKvTVOWP-10" vertex="1" connectable="0">
          <mxGeometry x="0.4952" relative="1" as="geometry">
            <mxPoint as="offset" />
          </mxGeometry>
        </mxCell>
        <mxCell id="x1PVfPSBhp6ivKvTVOWP-35" value="1" style="edgeLabel;html=1;align=center;verticalAlign=middle;resizable=0;points=[];fontColor=#1A1A1A;" parent="x1PVfPSBhp6ivKvTVOWP-10" vertex="1" connectable="0">
          <mxGeometry x="0.8742" y="1" relative="1" as="geometry">
            <mxPoint as="offset" />
          </mxGeometry>
        </mxCell>
        <mxCell id="x1PVfPSBhp6ivKvTVOWP-36" value="n" style="edgeLabel;html=1;align=center;verticalAlign=middle;resizable=0;points=[];fontColor=#1A1A1A;" parent="x1PVfPSBhp6ivKvTVOWP-10" vertex="1" connectable="0">
          <mxGeometry x="-0.8728" y="2" relative="1" as="geometry">
            <mxPoint as="offset" />
          </mxGeometry>
        </mxCell>
        <mxCell id="x1PVfPSBhp6ivKvTVOWP-24" style="edgeStyle=orthogonalEdgeStyle;rounded=0;orthogonalLoop=1;jettySize=auto;html=1;exitX=0;exitY=0.75;exitDx=0;exitDy=0;entryX=1;entryY=0.75;entryDx=0;entryDy=0;textOpacity=40;fillOpacity=40;strokeOpacity=40;" parent="1" source="iLl4sf8TZpeG5W6NkvIJ-10" target="x1PVfPSBhp6ivKvTVOWP-4" edge="1">
          <mxGeometry relative="1" as="geometry" />
        </mxCell>
        <mxCell id="x1PVfPSBhp6ivKvTVOWP-40" value="n" style="edgeLabel;html=1;align=center;verticalAlign=middle;resizable=0;points=[];fontColor=#1A1A1A;textOpacity=40;fillOpacity=40;strokeOpacity=40;" parent="x1PVfPSBhp6ivKvTVOWP-24" vertex="1" connectable="0">
          <mxGeometry x="0.7029" relative="1" as="geometry">
            <mxPoint x="7" as="offset" />
          </mxGeometry>
        </mxCell>
        <mxCell id="x1PVfPSBhp6ivKvTVOWP-9" value="order_execution" style="rounded=1;whiteSpace=wrap;html=1;fillColor=#dae8fc;strokeColor=#6c8ebf;" parent="1" vertex="1">
          <mxGeometry x="586.4739773381986" y="367.6476470588235" width="123.52602266180142" height="67.05882352941177" as="geometry" />
        </mxCell>
        <mxCell id="x1PVfPSBhp6ivKvTVOWP-12" style="edgeStyle=orthogonalEdgeStyle;rounded=0;orthogonalLoop=1;jettySize=auto;html=1;exitX=1;exitY=0.25;exitDx=0;exitDy=0;entryX=0.75;entryY=0;entryDx=0;entryDy=0;" parent="1" source="x1PVfPSBhp6ivKvTVOWP-1" target="x1PVfPSBhp6ivKvTVOWP-9" edge="1">
          <mxGeometry relative="1" as="geometry" />
        </mxCell>
        <mxCell id="x1PVfPSBhp6ivKvTVOWP-13" value="feedback for actions" style="edgeLabel;html=1;align=center;verticalAlign=middle;resizable=0;points=[];" parent="x1PVfPSBhp6ivKvTVOWP-12" vertex="1" connectable="0">
          <mxGeometry x="-0.2867" y="3" relative="1" as="geometry">
            <mxPoint as="offset" />
          </mxGeometry>
        </mxCell>
        <mxCell id="x1PVfPSBhp6ivKvTVOWP-37" value="1" style="edgeLabel;html=1;align=center;verticalAlign=middle;resizable=0;points=[];fontColor=#1A1A1A;" parent="x1PVfPSBhp6ivKvTVOWP-12" vertex="1" connectable="0">
          <mxGeometry x="-0.918" y="1" relative="1" as="geometry">
            <mxPoint as="offset" />
          </mxGeometry>
        </mxCell>
        <mxCell id="x1PVfPSBhp6ivKvTVOWP-38" value="n" style="edgeLabel;html=1;align=center;verticalAlign=middle;resizable=0;points=[];fontColor=#1A1A1A;" parent="x1PVfPSBhp6ivKvTVOWP-12" vertex="1" connectable="0">
          <mxGeometry x="0.8676" y="2" relative="1" as="geometry">
            <mxPoint as="offset" />
          </mxGeometry>
        </mxCell>
        <mxCell id="x1PVfPSBhp6ivKvTVOWP-14" style="edgeStyle=orthogonalEdgeStyle;rounded=0;orthogonalLoop=1;jettySize=auto;html=1;exitX=1;exitY=0.5;exitDx=0;exitDy=0;entryX=0;entryY=0.25;entryDx=0;entryDy=0;startArrow=none;startFill=0;textOpacity=40;fillOpacity=40;strokeOpacity=40;" parent="1" source="iLl4sf8TZpeG5W6NkvIJ-5" target="x1PVfPSBhp6ivKvTVOWP-9" edge="1">
          <mxGeometry relative="1" as="geometry" />
        </mxCell>
        <mxCell id="x1PVfPSBhp6ivKvTVOWP-22" value="m" style="edgeLabel;html=1;align=center;verticalAlign=middle;resizable=0;points=[];textOpacity=40;fillOpacity=40;strokeOpacity=40;" parent="x1PVfPSBhp6ivKvTVOWP-14" vertex="1" connectable="0">
          <mxGeometry x="0.7143" y="-1" relative="1" as="geometry">
            <mxPoint x="-14" y="-2" as="offset" />
          </mxGeometry>
        </mxCell>
        <mxCell id="x1PVfPSBhp6ivKvTVOWP-26" value="marketdata" style="shape=cylinder3;whiteSpace=wrap;html=1;boundedLbl=1;backgroundOutline=1;size=15;fillColor=#d5e8d4;strokeColor=#82b366;textOpacity=40;fillOpacity=40;strokeOpacity=40;" parent="1" vertex="1">
          <mxGeometry x="199.29" y="470" width="70.71" height="80" as="geometry" />
        </mxCell>
        <mxCell id="x1PVfPSBhp6ivKvTVOWP-30" value="feedback" style="shape=cylinder3;whiteSpace=wrap;html=1;boundedLbl=1;backgroundOutline=1;size=15;fillColor=#d5e8d4;strokeColor=#82b366;textOpacity=40;fillOpacity=40;strokeOpacity=40;" parent="1" vertex="1">
          <mxGeometry x="473.5400000000001" y="470" width="57.56" height="80" as="geometry" />
        </mxCell>
        <mxCell id="iLl4sf8TZpeG5W6NkvIJ-3" style="edgeStyle=orthogonalEdgeStyle;rounded=0;orthogonalLoop=1;jettySize=auto;html=1;exitX=1;exitY=0.5;exitDx=0;exitDy=0;entryX=0;entryY=0.5;entryDx=0;entryDy=0;textOpacity=40;fillOpacity=40;strokeOpacity=40;" parent="1" source="iLl4sf8TZpeG5W6NkvIJ-1" target="x1PVfPSBhp6ivKvTVOWP-4" edge="1">
          <mxGeometry relative="1" as="geometry">
            <mxPoint x="271.5999999999999" y="377.45" as="sourcePoint" />
            <mxPoint x="308.5404263491455" y="377.4470588235295" as="targetPoint" />
          </mxGeometry>
        </mxCell>
        <mxCell id="iLl4sf8TZpeG5W6NkvIJ-4" value="m" style="edgeLabel;html=1;align=center;verticalAlign=middle;resizable=0;points=[];textOpacity=40;fillOpacity=40;strokeOpacity=40;" parent="iLl4sf8TZpeG5W6NkvIJ-3" vertex="1" connectable="0">
          <mxGeometry x="0.2659" y="2" relative="1" as="geometry">
            <mxPoint x="-5" as="offset" />
          </mxGeometry>
        </mxCell>
        <mxCell id="iLl4sf8TZpeG5W6NkvIJ-1" value="marketdata" style="shape=image;verticalLabelPosition=top;labelBackgroundColor=default;verticalAlign=bottom;aspect=fixed;imageAspect=0;editableCssRules=.*;image=data:image/svg+xml,PHN2ZyBwcmVzZXJ2ZUFzcGVjdFJhdGlvPSJ4TWlkWU1pZCIgeG1sbnM9Imh0dHA6Ly93d3cudzMub3JnLzIwMDAvc3ZnIiB2aWV3Qm94PSIwIDAgMjU2IDQxNS42NDU5OTYwOTM3NSIgaGVpZ2h0PSIyNDkuNzg3MjU3MjY3ODc4NjMiIHdpZHRoPSIxNTQiPjxwYXRoIHN0eWxlPSJmaWxsOiMyMzFmMjAiIGQ9Ik0yMDEuODE2IDIzMC4yMTZjLTE2LjE4NiAwLTMwLjY5NyA3LjE3MS00MC42MzQgMTguNDYxbC0yNS40NjMtMTguMDI2YzIuNzAzLTcuNDQyIDQuMjU1LTE1LjQzMyA0LjI1NS0yMy43OTcgMC04LjIxOS0xLjQ5OC0xNi4wNzYtNC4xMTItMjMuNDA4bDI1LjQwNi0xNy44MzVjOS45MzYgMTEuMjMzIDI0LjQwOSAxOC4zNjUgNDAuNTQ4IDE4LjM2NSAyOS44NzUgMCA1NC4xODQtMjQuMzA1IDU0LjE4NC01NC4xODQgMC0yOS44NzktMjQuMzA5LTU0LjE4NC01NC4xODQtNTQuMTg0LTI5Ljg3NSAwLTU0LjE4NCAyNC4zMDUtNTQuMTg0IDU0LjE4NCAwIDUuMzQ4LjgwOCAxMC41MDUgMi4yNTggMTUuMzg5bC0yNS40MjMgMTcuODQ0Yy0xMC42Mi0xMy4xNzUtMjUuOTExLTIyLjM3NC00My4zMzMtMjUuMTgydi0zMC42NGMyNC41NDQtNS4xNTUgNDMuMDM3LTI2Ljk2MiA0My4wMzctNTMuMDE5QzEyNC4xNzEgMjQuMzA1IDk5Ljg2MiAwIDY5Ljk4NyAwIDQwLjExMiAwIDE1LjgwMyAyNC4zMDUgMTUuODAzIDU0LjE4NGMwIDI1LjcwOCAxOC4wMTQgNDcuMjQ2IDQyLjA2NyA1Mi43Njl2MzEuMDM4QzI1LjA0NCAxNDMuNzUzIDAgMTcyLjQwMSAwIDIwNi44NTRjMCAzNC42MjEgMjUuMjkyIDYzLjM3NCA1OC4zNTUgNjguOTR2MzIuNzc0Yy0yNC4yOTkgNS4zNDEtNDIuNTUyIDI3LjAxMS00Mi41NTIgNTIuODk0IDAgMjkuODc5IDI0LjMwOSA1NC4xODQgNTQuMTg0IDU0LjE4NCAyOS44NzUgMCA1NC4xODQtMjQuMzA1IDU0LjE4NC01NC4xODQgMC0yNS44ODMtMTguMjUzLTQ3LjU1My00Mi41NTItNTIuODk0di0zMi43NzVhNjkuOTY1IDY5Ljk2NSAwIDAgMCA0Mi42LTI0Ljc3NmwyNS42MzMgMTguMTQzYy0xLjQyMyA0Ljg0LTIuMjIgOS45NDYtMi4yMiAxNS4yNCAwIDI5Ljg3OSAyNC4zMDkgNTQuMTg0IDU0LjE4NCA1NC4xODQgMjkuODc1IDAgNTQuMTg0LTI0LjMwNSA1NC4xODQtNTQuMTg0IDAtMjkuODc5LTI0LjMwOS01NC4xODQtNTQuMTg0LTU0LjE4NHptMC0xMjYuNjk1YzE0LjQ4NyAwIDI2LjI3IDExLjc4OCAyNi4yNyAyNi4yNzFzLTExLjc4MyAyNi4yNy0yNi4yNyAyNi4yNy0yNi4yNy0xMS43ODctMjYuMjctMjYuMjdjMC0xNC40ODMgMTEuNzgzLTI2LjI3MSAyNi4yNy0yNi4yNzF6bS0xNTguMS00OS4zMzdjMC0xNC40ODMgMTEuNzg0LTI2LjI3IDI2LjI3MS0yNi4yN3MyNi4yNyAxMS43ODcgMjYuMjcgMjYuMjdjMCAxNC40ODMtMTEuNzgzIDI2LjI3LTI2LjI3IDI2LjI3cy0yNi4yNzEtMTEuNzg3LTI2LjI3MS0yNi4yN3ptNTIuNTQxIDMwNy4yNzhjMCAxNC40ODMtMTEuNzgzIDI2LjI3LTI2LjI3IDI2LjI3cy0yNi4yNzEtMTEuNzg3LTI2LjI3MS0yNi4yN2MwLTE0LjQ4MyAxMS43ODQtMjYuMjcgMjYuMjcxLTI2LjI3czI2LjI3IDExLjc4NyAyNi4yNyAyNi4yN3ptLTI2LjI3Mi0xMTcuOTdjLTIwLjIwNSAwLTM2LjY0Mi0xNi40MzQtMzYuNjQyLTM2LjYzOCAwLTIwLjIwNSAxNi40MzctMzYuNjQyIDM2LjY0Mi0zNi42NDIgMjAuMjA0IDAgMzYuNjQxIDE2LjQzNyAzNi42NDEgMzYuNjQyIDAgMjAuMjA0LTE2LjQzNyAzNi42MzgtMzYuNjQxIDM2LjYzOHptMTMxLjgzMSA2Ny4xNzljLTE0LjQ4NyAwLTI2LjI3LTExLjc4OC0yNi4yNy0yNi4yNzFzMTEuNzgzLTI2LjI3IDI2LjI3LTI2LjI3IDI2LjI3IDExLjc4NyAyNi4yNyAyNi4yN2MwIDE0LjQ4My0xMS43ODMgMjYuMjcxLTI2LjI3IDI2LjI3MXoiLz48L3N2Zz4=;labelPosition=center;align=center;textOpacity=40;fillOpacity=40;strokeOpacity=40;" parent="1" vertex="1">
          <mxGeometry x="220" y="376.30999999999995" width="30.64" height="49.74" as="geometry" />
        </mxCell>
        <mxCell id="iLl4sf8TZpeG5W6NkvIJ-5" value="orders" style="shape=image;verticalLabelPosition=top;labelBackgroundColor=default;verticalAlign=bottom;aspect=fixed;imageAspect=0;editableCssRules=.*;image=data:image/svg+xml,PHN2ZyBwcmVzZXJ2ZUFzcGVjdFJhdGlvPSJ4TWlkWU1pZCIgeG1sbnM9Imh0dHA6Ly93d3cudzMub3JnLzIwMDAvc3ZnIiB2aWV3Qm94PSIwIDAgMjU2IDQxNS42NDU5OTYwOTM3NSIgaGVpZ2h0PSIyNDkuNzg3MjU3MjY3ODc4NjMiIHdpZHRoPSIxNTQiPjxwYXRoIHN0eWxlPSJmaWxsOiMyMzFmMjAiIGQ9Ik0yMDEuODE2IDIzMC4yMTZjLTE2LjE4NiAwLTMwLjY5NyA3LjE3MS00MC42MzQgMTguNDYxbC0yNS40NjMtMTguMDI2YzIuNzAzLTcuNDQyIDQuMjU1LTE1LjQzMyA0LjI1NS0yMy43OTcgMC04LjIxOS0xLjQ5OC0xNi4wNzYtNC4xMTItMjMuNDA4bDI1LjQwNi0xNy44MzVjOS45MzYgMTEuMjMzIDI0LjQwOSAxOC4zNjUgNDAuNTQ4IDE4LjM2NSAyOS44NzUgMCA1NC4xODQtMjQuMzA1IDU0LjE4NC01NC4xODQgMC0yOS44NzktMjQuMzA5LTU0LjE4NC01NC4xODQtNTQuMTg0LTI5Ljg3NSAwLTU0LjE4NCAyNC4zMDUtNTQuMTg0IDU0LjE4NCAwIDUuMzQ4LjgwOCAxMC41MDUgMi4yNTggMTUuMzg5bC0yNS40MjMgMTcuODQ0Yy0xMC42Mi0xMy4xNzUtMjUuOTExLTIyLjM3NC00My4zMzMtMjUuMTgydi0zMC42NGMyNC41NDQtNS4xNTUgNDMuMDM3LTI2Ljk2MiA0My4wMzctNTMuMDE5QzEyNC4xNzEgMjQuMzA1IDk5Ljg2MiAwIDY5Ljk4NyAwIDQwLjExMiAwIDE1LjgwMyAyNC4zMDUgMTUuODAzIDU0LjE4NGMwIDI1LjcwOCAxOC4wMTQgNDcuMjQ2IDQyLjA2NyA1Mi43Njl2MzEuMDM4QzI1LjA0NCAxNDMuNzUzIDAgMTcyLjQwMSAwIDIwNi44NTRjMCAzNC42MjEgMjUuMjkyIDYzLjM3NCA1OC4zNTUgNjguOTR2MzIuNzc0Yy0yNC4yOTkgNS4zNDEtNDIuNTUyIDI3LjAxMS00Mi41NTIgNTIuODk0IDAgMjkuODc5IDI0LjMwOSA1NC4xODQgNTQuMTg0IDU0LjE4NCAyOS44NzUgMCA1NC4xODQtMjQuMzA1IDU0LjE4NC01NC4xODQgMC0yNS44ODMtMTguMjUzLTQ3LjU1My00Mi41NTItNTIuODk0di0zMi43NzVhNjkuOTY1IDY5Ljk2NSAwIDAgMCA0Mi42LTI0Ljc3NmwyNS42MzMgMTguMTQzYy0xLjQyMyA0Ljg0LTIuMjIgOS45NDYtMi4yMiAxNS4yNCAwIDI5Ljg3OSAyNC4zMDkgNTQuMTg0IDU0LjE4NCA1NC4xODQgMjkuODc1IDAgNTQuMTg0LTI0LjMwNSA1NC4xODQtNTQuMTg0IDAtMjkuODc5LTI0LjMwOS01NC4xODQtNTQuMTg0LTU0LjE4NHptMC0xMjYuNjk1YzE0LjQ4NyAwIDI2LjI3IDExLjc4OCAyNi4yNyAyNi4yNzFzLTExLjc4MyAyNi4yNy0yNi4yNyAyNi4yNy0yNi4yNy0xMS43ODctMjYuMjctMjYuMjdjMC0xNC40ODMgMTEuNzgzLTI2LjI3MSAyNi4yNy0yNi4yNzF6bS0xNTguMS00OS4zMzdjMC0xNC40ODMgMTEuNzg0LTI2LjI3IDI2LjI3MS0yNi4yN3MyNi4yNyAxMS43ODcgMjYuMjcgMjYuMjdjMCAxNC40ODMtMTEuNzgzIDI2LjI3LTI2LjI3IDI2LjI3cy0yNi4yNzEtMTEuNzg3LTI2LjI3MS0yNi4yN3ptNTIuNTQxIDMwNy4yNzhjMCAxNC40ODMtMTEuNzgzIDI2LjI3LTI2LjI3IDI2LjI3cy0yNi4yNzEtMTEuNzg3LTI2LjI3MS0yNi4yN2MwLTE0LjQ4MyAxMS43ODQtMjYuMjcgMjYuMjcxLTI2LjI3czI2LjI3IDExLjc4NyAyNi4yNyAyNi4yN3ptLTI2LjI3Mi0xMTcuOTdjLTIwLjIwNSAwLTM2LjY0Mi0xNi40MzQtMzYuNjQyLTM2LjYzOCAwLTIwLjIwNSAxNi40MzctMzYuNjQyIDM2LjY0Mi0zNi42NDIgMjAuMjA0IDAgMzYuNjQxIDE2LjQzNyAzNi42NDEgMzYuNjQyIDAgMjAuMjA0LTE2LjQzNyAzNi42MzgtMzYuNjQxIDM2LjYzOHptMTMxLjgzMSA2Ny4xNzljLTE0LjQ4NyAwLTI2LjI3LTExLjc4OC0yNi4yNy0yNi4yNzFzMTEuNzgzLTI2LjI3IDI2LjI3LTI2LjI3IDI2LjI3IDExLjc4NyAyNi4yNyAyNi4yN2MwIDE0LjQ4My0xMS43ODMgMjYuMjcxLTI2LjI3IDI2LjI3MXoiLz48L3N2Zz4=;labelPosition=center;align=center;textOpacity=40;fillOpacity=40;strokeOpacity=40;" parent="1" vertex="1">
          <mxGeometry x="490" y="327.65" width="24.64" height="40" as="geometry" />
        </mxCell>
        <mxCell id="iLl4sf8TZpeG5W6NkvIJ-6" value="" style="edgeStyle=orthogonalEdgeStyle;rounded=0;orthogonalLoop=1;jettySize=auto;html=1;exitX=1;exitY=0.25;exitDx=0;exitDy=0;entryX=0;entryY=0.5;entryDx=0;entryDy=0;startArrow=none;startFill=0;textOpacity=40;fillOpacity=40;strokeOpacity=40;" parent="1" source="x1PVfPSBhp6ivKvTVOWP-4" target="iLl4sf8TZpeG5W6NkvIJ-5" edge="1">
          <mxGeometry relative="1" as="geometry">
            <mxPoint x="472" y="571" as="sourcePoint" />
            <mxPoint x="626" y="571" as="targetPoint" />
          </mxGeometry>
        </mxCell>
        <mxCell id="iLl4sf8TZpeG5W6NkvIJ-7" value="n" style="edgeLabel;html=1;align=center;verticalAlign=middle;resizable=0;points=[];textOpacity=40;fillOpacity=40;strokeOpacity=40;" parent="iLl4sf8TZpeG5W6NkvIJ-6" vertex="1" connectable="0">
          <mxGeometry x="-0.6952" y="-3" relative="1" as="geometry">
            <mxPoint x="7" y="-3" as="offset" />
          </mxGeometry>
        </mxCell>
        <mxCell id="iLl4sf8TZpeG5W6NkvIJ-11" value="" style="edgeStyle=orthogonalEdgeStyle;rounded=0;orthogonalLoop=1;jettySize=auto;html=1;exitX=0;exitY=0.75;exitDx=0;exitDy=0;entryX=1;entryY=0.75;entryDx=0;entryDy=0;textOpacity=40;fillOpacity=40;strokeOpacity=40;" parent="1" source="x1PVfPSBhp6ivKvTVOWP-9" target="iLl4sf8TZpeG5W6NkvIJ-10" edge="1">
          <mxGeometry relative="1" as="geometry">
            <mxPoint x="586" y="394" as="sourcePoint" />
            <mxPoint x="432" y="394" as="targetPoint" />
          </mxGeometry>
        </mxCell>
        <mxCell id="iLl4sf8TZpeG5W6NkvIJ-12" value="m" style="edgeLabel;html=1;align=center;verticalAlign=middle;resizable=0;points=[];fontColor=#1A1A1A;textOpacity=40;fillOpacity=40;strokeOpacity=40;" parent="iLl4sf8TZpeG5W6NkvIJ-11" vertex="1" connectable="0">
          <mxGeometry x="-0.67" y="1" relative="1" as="geometry">
            <mxPoint x="-12" as="offset" />
          </mxGeometry>
        </mxCell>
        <mxCell id="iLl4sf8TZpeG5W6NkvIJ-10" value="feedback" style="shape=image;verticalLabelPosition=top;labelBackgroundColor=default;verticalAlign=bottom;aspect=fixed;imageAspect=0;editableCssRules=.*;image=data:image/svg+xml,PHN2ZyBwcmVzZXJ2ZUFzcGVjdFJhdGlvPSJ4TWlkWU1pZCIgeG1sbnM9Imh0dHA6Ly93d3cudzMub3JnLzIwMDAvc3ZnIiB2aWV3Qm94PSIwIDAgMjU2IDQxNS42NDU5OTYwOTM3NSIgaGVpZ2h0PSIyNDkuNzg3MjU3MjY3ODc4NjMiIHdpZHRoPSIxNTQiPjxwYXRoIHN0eWxlPSJmaWxsOiMyMzFmMjAiIGQ9Ik0yMDEuODE2IDIzMC4yMTZjLTE2LjE4NiAwLTMwLjY5NyA3LjE3MS00MC42MzQgMTguNDYxbC0yNS40NjMtMTguMDI2YzIuNzAzLTcuNDQyIDQuMjU1LTE1LjQzMyA0LjI1NS0yMy43OTcgMC04LjIxOS0xLjQ5OC0xNi4wNzYtNC4xMTItMjMuNDA4bDI1LjQwNi0xNy44MzVjOS45MzYgMTEuMjMzIDI0LjQwOSAxOC4zNjUgNDAuNTQ4IDE4LjM2NSAyOS44NzUgMCA1NC4xODQtMjQuMzA1IDU0LjE4NC01NC4xODQgMC0yOS44NzktMjQuMzA5LTU0LjE4NC01NC4xODQtNTQuMTg0LTI5Ljg3NSAwLTU0LjE4NCAyNC4zMDUtNTQuMTg0IDU0LjE4NCAwIDUuMzQ4LjgwOCAxMC41MDUgMi4yNTggMTUuMzg5bC0yNS40MjMgMTcuODQ0Yy0xMC42Mi0xMy4xNzUtMjUuOTExLTIyLjM3NC00My4zMzMtMjUuMTgydi0zMC42NGMyNC41NDQtNS4xNTUgNDMuMDM3LTI2Ljk2MiA0My4wMzctNTMuMDE5QzEyNC4xNzEgMjQuMzA1IDk5Ljg2MiAwIDY5Ljk4NyAwIDQwLjExMiAwIDE1LjgwMyAyNC4zMDUgMTUuODAzIDU0LjE4NGMwIDI1LjcwOCAxOC4wMTQgNDcuMjQ2IDQyLjA2NyA1Mi43Njl2MzEuMDM4QzI1LjA0NCAxNDMuNzUzIDAgMTcyLjQwMSAwIDIwNi44NTRjMCAzNC42MjEgMjUuMjkyIDYzLjM3NCA1OC4zNTUgNjguOTR2MzIuNzc0Yy0yNC4yOTkgNS4zNDEtNDIuNTUyIDI3LjAxMS00Mi41NTIgNTIuODk0IDAgMjkuODc5IDI0LjMwOSA1NC4xODQgNTQuMTg0IDU0LjE4NCAyOS44NzUgMCA1NC4xODQtMjQuMzA1IDU0LjE4NC01NC4xODQgMC0yNS44ODMtMTguMjUzLTQ3LjU1My00Mi41NTItNTIuODk0di0zMi43NzVhNjkuOTY1IDY5Ljk2NSAwIDAgMCA0Mi42LTI0Ljc3NmwyNS42MzMgMTguMTQzYy0xLjQyMyA0Ljg0LTIuMjIgOS45NDYtMi4yMiAxNS4yNCAwIDI5Ljg3OSAyNC4zMDkgNTQuMTg0IDU0LjE4NCA1NC4xODQgMjkuODc1IDAgNTQuMTg0LTI0LjMwNSA1NC4xODQtNTQuMTg0IDAtMjkuODc5LTI0LjMwOS01NC4xODQtNTQuMTg0LTU0LjE4NHptMC0xMjYuNjk1YzE0LjQ4NyAwIDI2LjI3IDExLjc4OCAyNi4yNyAyNi4yNzFzLTExLjc4MyAyNi4yNy0yNi4yNyAyNi4yNy0yNi4yNy0xMS43ODctMjYuMjctMjYuMjdjMC0xNC40ODMgMTEuNzgzLTI2LjI3MSAyNi4yNy0yNi4yNzF6bS0xNTguMS00OS4zMzdjMC0xNC40ODMgMTEuNzg0LTI2LjI3IDI2LjI3MS0yNi4yN3MyNi4yNyAxMS43ODcgMjYuMjcgMjYuMjdjMCAxNC40ODMtMTEuNzgzIDI2LjI3LTI2LjI3IDI2LjI3cy0yNi4yNzEtMTEuNzg3LTI2LjI3MS0yNi4yN3ptNTIuNTQxIDMwNy4yNzhjMCAxNC40ODMtMTEuNzgzIDI2LjI3LTI2LjI3IDI2LjI3cy0yNi4yNzEtMTEuNzg3LTI2LjI3MS0yNi4yN2MwLTE0LjQ4MyAxMS43ODQtMjYuMjcgMjYuMjcxLTI2LjI3czI2LjI3IDExLjc4NyAyNi4yNyAyNi4yN3ptLTI2LjI3Mi0xMTcuOTdjLTIwLjIwNSAwLTM2LjY0Mi0xNi40MzQtMzYuNjQyLTM2LjYzOCAwLTIwLjIwNSAxNi40MzctMzYuNjQyIDM2LjY0Mi0zNi42NDIgMjAuMjA0IDAgMzYuNjQxIDE2LjQzNyAzNi42NDEgMzYuNjQyIDAgMjAuMjA0LTE2LjQzNyAzNi42MzgtMzYuNjQxIDM2LjYzOHptMTMxLjgzMSA2Ny4xNzljLTE0LjQ4NyAwLTI2LjI3LTExLjc4OC0yNi4yNy0yNi4yNzFzMTEuNzgzLTI2LjI3IDI2LjI3LTI2LjI3IDI2LjI3IDExLjc4NyAyNi4yNyAyNi4yN2MwIDE0LjQ4My0xMS43ODMgMjYuMjcxLTI2LjI3IDI2LjI3MXoiLz48L3N2Zz4=;labelPosition=center;align=center;textOpacity=40;fillOpacity=40;strokeOpacity=40;" parent="1" vertex="1">
          <mxGeometry x="490" y="410" width="24.64" height="40" as="geometry" />
        </mxCell>
        <mxCell id="iLl4sf8TZpeG5W6NkvIJ-14" value="strategy actions" style="shape=cylinder3;whiteSpace=wrap;html=1;boundedLbl=1;backgroundOutline=1;size=15;fillColor=#d5e8d4;strokeColor=#82b366;textOpacity=40;fillOpacity=40;strokeOpacity=40;" parent="1" vertex="1">
          <mxGeometry x="342.44" y="260" width="57.56" height="80" as="geometry" />
        </mxCell>
        <mxCell id="iLl4sf8TZpeG5W6NkvIJ-15" style="edgeStyle=orthogonalEdgeStyle;rounded=0;orthogonalLoop=1;jettySize=auto;html=1;exitX=0;exitY=0.25;exitDx=0;exitDy=0;entryX=1;entryY=0.5;entryDx=0;entryDy=0;entryPerimeter=0;textOpacity=40;fillOpacity=40;strokeOpacity=40;" parent="1" source="iLl4sf8TZpeG5W6NkvIJ-5" target="iLl4sf8TZpeG5W6NkvIJ-14" edge="1">
          <mxGeometry relative="1" as="geometry" />
        </mxCell>
        <mxCell id="iLl4sf8TZpeG5W6NkvIJ-16" style="edgeStyle=orthogonalEdgeStyle;rounded=0;orthogonalLoop=1;jettySize=auto;html=1;exitX=0.5;exitY=1;exitDx=0;exitDy=0;entryX=0.5;entryY=0;entryDx=0;entryDy=0;entryPerimeter=0;textOpacity=40;fillOpacity=40;strokeOpacity=40;" parent="1" source="iLl4sf8TZpeG5W6NkvIJ-10" target="x1PVfPSBhp6ivKvTVOWP-30" edge="1">
          <mxGeometry relative="1" as="geometry" />
        </mxCell>
      </root>
    </mxGraphModel>
  </diagram>
</mxfile>
